<?xml version="1.0" standalone="no"?>
<!DOCTYPE svg PUBLIC "-//W3C//DTD SVG 20010904//EN"
 "http://www.w3.org/TR/2001/REC-SVG-20010904/DTD/svg10.dtd">
<svg version="1.0" xmlns="http://www.w3.org/2000/svg"
 width="192.000000pt" height="192.000000pt" viewBox="0 0 192.000000 192.000000"
 preserveAspectRatio="xMidYMid meet">
<metadata>
Created by potrace 1.11, written by Peter Selinger 2001-2013
</metadata>
<g transform="translate(0.000000,192.000000) scale(0.100000,-0.100000)"
fill="#000000" stroke="none">
<path d="M0 960 l0 -960 960 0 960 0 0 960 0 960 -960 0 -960 0 0 -960z m1220
865 c47 -15 120 -45 162 -67 l78 -40 -38 -28 c-20 -15 -62 -57 -91 -93 -30
-37 -59 -67 -64 -67 -6 0 -18 6 -26 14 -42 36 -102 45 -276 43 -135 -2 -177
-5 -202 -18 -38 -20 -36 -22 -106 89 -26 39 -61 81 -78 91 l-31 19 79 30 c131
51 201 62 363 58 125 -3 157 -7 230 -31z m-821 -375 c18 -41 45 -99 62 -128
28 -50 29 -54 14 -82 -17 -32 -105 -393 -105 -429 0 -12 4 -20 9 -17 5 3 11
-16 13 -44 3 -48 2 -50 -45 -91 -26 -22 -59 -59 -73 -80 -14 -22 -39 -49 -57
-59 l-32 -20 -17 23 c-27 35 -75 165 -92 249 -9 44 -16 126 -16 191 0 232 82
440 240 610 l55 60 6 -54 c4 -30 21 -88 38 -129z m511 -362 c0 -24 10 -40 42
-70 l42 -38 -43 15 c-51 18 -85 19 -113 4 -27 -15 -31 -7 -19 37 15 55 38 84
67 84 20 0 24 -5 24 -32z m60 -144 c6 -6 -23 -10 -77 -10 -78 -1 -84 0 -62 13
26 15 123 13 139 -3z m11 -211 c-10 -17 -10 -16 -11 3 0 23 13 41 18 25 2 -6
-1 -18 -7 -28z m-151 5 c0 -16 -3 -19 -11 -11 -6 6 -8 16 -5 22 11 17 16 13
16 -11z"/>
</g>
</svg>
